<svg width="13" height="10" viewBox="0 0 13 10" fill="none" xmlns="http://www.w3.org/2000/svg">
<path opacity="0.7" d="M12.7461 3.47461C12.1367 3.95703 10.8164 4.92188 8.83594 6.34375L8.58203 6.54688C8.17578 6.85156 7.87109 7.08008 7.61719 7.20703C7.21094 7.46094 6.83008 7.5625 6.5 7.5625C6.14453 7.5625 5.78906 7.46094 5.38281 7.23242C5.12891 7.10547 4.82422 6.87695 4.41797 6.57227L4.16406 6.34375C2.10742 4.87109 0.8125 3.90625 0.253906 3.47461C0.203125 3.44922 0.126953 3.44922 0.0761719 3.47461C0.0253906 3.5 0 3.55078 0 3.60156V8.78125C0 9.13672 0.101562 9.41602 0.355469 9.64453C0.583984 9.89844 0.863281 10 1.21875 10H11.7812C12.1113 10 12.3906 9.89844 12.6445 9.64453C12.873 9.41602 13 9.13672 13 8.78125V3.60156C13 3.55078 12.9492 3.5 12.8984 3.44922C12.8477 3.42383 12.7969 3.42383 12.7461 3.47461ZM6.5 6.75C6.27148 6.75 5.99219 6.64844 5.6875 6.44531C5.48438 6.34375 5.23047 6.16602 4.90039 5.88672L4.64648 5.70898C2.56445 4.18555 1.14258 3.14453 0.40625 2.56055L0.228516 2.43359C0.0761719 2.33203 0 2.1543 0 1.95117V1.46875C0 1.13867 0.101562 0.859375 0.355469 0.605469C0.583984 0.376953 0.863281 0.25 1.21875 0.25H11.7812C12.1113 0.25 12.3906 0.376953 12.6445 0.605469C12.873 0.859375 13 1.13867 13 1.46875V1.95117C13 2.1543 12.9238 2.33203 12.7715 2.43359L12.6445 2.53516C11.9082 3.11914 10.4863 4.18555 8.35352 5.70898L8.09961 5.88672C7.74414 6.16602 7.49023 6.34375 7.3125 6.44531C6.98242 6.64844 6.70312 6.75 6.5 6.75Z" fill="white"/>
</svg>
