<svg width="9" height="15" viewBox="0 0 9 15" fill="none" xmlns="http://www.w3.org/2000/svg">
<path d="M7.51953 9.88281C8.01172 9.55469 8.3125 9.30859 8.44922 9.11719C8.61328 8.89844 8.61328 8.59766 8.47656 8.26953C8.33984 8.05078 8.14844 7.88672 7.92969 7.83203C7.60156 7.77734 7.30078 7.85938 6.97266 8.10547L6.64453 8.32422C6.37109 8.48828 6.07031 8.59766 5.76953 8.70703C5.30469 8.84375 4.83984 8.89844 4.375 8.89844C3.88281 8.89844 3.41797 8.84375 2.98047 8.70703C2.65234 8.59766 2.37891 8.48828 2.10547 8.32422L1.77734 8.10547C1.44922 7.85938 1.12109 7.77734 0.847656 7.83203C0.574219 7.88672 0.410156 8.05078 0.300781 8.26953C0.136719 8.59766 0.136719 8.89844 0.300781 9.11719C0.410156 9.30859 0.738281 9.55469 1.23047 9.88281C1.80469 10.2656 2.625 10.5117 3.71875 10.6211L1.06641 13.2734C0.792969 13.5195 0.738281 13.793 0.847656 14.0938C0.957031 14.3945 1.14844 14.5859 1.47656 14.6953C1.77734 14.8047 2.05078 14.75 2.29688 14.5039L4.375 12.4258L6.48047 14.5312C6.69922 14.7773 6.97266 14.832 7.27344 14.7227C7.57422 14.6133 7.79297 14.3945 7.90234 14.0938C8.01172 13.793 7.92969 13.5195 7.71094 13.2734L5.05859 10.6211C6.09766 10.5117 6.91797 10.2656 7.51953 9.88281ZM0.820312 4.30469C0.820312 4.96094 0.957031 5.53516 1.28516 6.08203C1.61328 6.62891 2.05078 7.03906 2.59766 7.36719C3.14453 7.69531 3.71875 7.83203 4.375 7.83203C5.00391 7.83203 5.60547 7.69531 6.15234 7.36719C6.69922 7.03906 7.10938 6.62891 7.4375 6.08203C7.76562 5.53516 7.92969 4.96094 7.92969 4.30469C7.92969 3.64844 7.76562 3.07422 7.4375 2.52734C7.10938 1.98047 6.69922 1.57031 6.15234 1.24219C5.60547 0.914062 5.00391 0.75 4.375 0.75C3.71875 0.75 3.14453 0.914062 2.59766 1.24219C2.05078 1.57031 1.61328 1.98047 1.28516 2.52734C0.957031 3.07422 0.820312 3.64844 0.820312 4.30469ZM2.625 4.30469C2.625 3.8125 2.78906 3.40234 3.14453 3.07422C3.47266 2.74609 3.88281 2.55469 4.375 2.55469C4.83984 2.55469 5.25 2.74609 5.60547 3.07422C5.93359 3.40234 6.125 3.8125 6.125 4.30469C6.125 4.79688 5.93359 5.20703 5.60547 5.53516C5.25 5.86328 4.83984 6.02734 4.375 6.02734C3.88281 6.02734 3.47266 5.86328 3.14453 5.53516C2.78906 5.20703 2.625 4.79688 2.625 4.30469Z" fill="white"/>
</svg>
