<svg width="16" height="10" viewBox="0 0 16 10" fill="none" xmlns="http://www.w3.org/2000/svg">
<path d="M15.0273 0.976562C14.9727 1.25 14.7539 1.71484 14.3711 2.34375C14.0977 2.80859 13.7695 3.32812 13.3867 3.92969C13.0586 4.42188 12.8672 4.66797 12.8672 4.66797C12.7578 4.83203 12.7031 4.96875 12.7031 5.05078C12.7031 5.16016 12.7578 5.26953 12.8672 5.37891L13.1133 5.65234C14.4258 7.01953 15.1641 7.94922 15.3281 8.44141C15.3828 8.66016 15.3555 8.85156 15.2461 8.96094C15.1367 9.07031 15 9.125 14.7812 9.125H13.168C12.9492 9.125 12.7852 9.07031 12.6211 8.93359C12.5117 8.87891 12.293 8.6875 12.0195 8.35938C11.7461 8.03125 11.5 7.75781 11.2812 7.53906C10.543 6.85547 9.99609 6.5 9.66797 6.5C9.50391 6.5 9.39453 6.52734 9.33984 6.58203C9.28516 6.63672 9.25781 6.77344 9.25781 6.9375C9.23047 7.07422 9.23047 7.34766 9.23047 7.78516V8.49609C9.23047 8.71484 9.17578 8.87891 9.06641 8.96094C8.90234 9.07031 8.57422 9.125 8.08203 9.125C7.20703 9.125 6.35938 8.87891 5.48438 8.35938C4.60938 7.86719 3.84375 7.12891 3.1875 6.17188C2.55859 5.35156 2.03906 4.50391 1.62891 3.62891C1.30078 2.97266 1.02734 2.37109 0.835938 1.79688C0.699219 1.35938 0.644531 1.03125 0.644531 0.839844C0.644531 0.539062 0.808594 0.375 1.19141 0.375H2.80469C2.99609 0.375 3.13281 0.429688 3.24219 0.511719C3.35156 0.621094 3.43359 0.785156 3.51562 1.00391C3.76172 1.74219 4.0625 2.45312 4.44531 3.13672C4.77344 3.79297 5.10156 4.3125 5.42969 4.69531C5.75781 5.10547 6.00391 5.29688 6.19531 5.29688C6.30469 5.29688 6.35938 5.26953 6.41406 5.1875C6.46875 5.10547 6.49609 4.94141 6.49609 4.69531V2.31641C6.46875 2.04297 6.41406 1.76953 6.30469 1.55078C6.25 1.44141 6.14062 1.30469 6.03125 1.14062C5.89453 0.976562 5.83984 0.867188 5.83984 0.757812C5.83984 0.648438 5.86719 0.566406 5.94922 0.484375C6.03125 0.429688 6.14062 0.375 6.25 0.375H8.79297C8.95703 0.375 9.06641 0.429688 9.12109 0.511719C9.17578 0.621094 9.23047 0.757812 9.23047 0.976562V4.14844C9.23047 4.3125 9.25781 4.44922 9.3125 4.50391C9.36719 4.58594 9.42188 4.61328 9.50391 4.61328C9.58594 4.61328 9.69531 4.58594 9.80469 4.53125C9.91406 4.47656 10.0508 4.33984 10.2422 4.12109C10.5703 3.73828 10.9258 3.27344 11.2812 2.69922C11.5 2.31641 11.7461 1.87891 11.9648 1.38672L12.2383 0.839844C12.3477 0.539062 12.5938 0.375 12.9219 0.375H14.5352C14.9727 0.375 15.1367 0.59375 15.0273 0.976562Z" fill="white"/>
</svg>
